<?xml version="1.0" encoding="UTF-8" standalone="no"?>
<svg
   xmlns:dc="http://purl.org/dc/elements/1.1/"
   xmlns:cc="http://creativecommons.org/ns#"
   xmlns:rdf="http://www.w3.org/1999/02/22-rdf-syntax-ns#"
   xmlns:svg="http://www.w3.org/2000/svg"
   xmlns="http://www.w3.org/2000/svg"
   viewBox="0 0 696.96002 298.35999"
   height="298.35999"
   width="696.96002"
   xml:space="preserve"
   id="svg3764"
   version="1.1"><metadata
     id="metadata3770"><rdf:RDF><cc:Work
         rdf:about=""><dc:format>image/svg+xml</dc:format><dc:type
           rdf:resource="http://purl.org/dc/dcmitype/StillImage" /><dc:title></dc:title></cc:Work></rdf:RDF></metadata><defs
     id="defs3768"><clipPath
       id="clipPath3784"
       clipPathUnits="userSpaceOnUse"><path
         id="path3782"
         d="m 938.559,1411.62 21.007,-18.2 c 296.254,341.4 979.074,653.94 1792.294,653.94 h -5.01 c 822.3,0 1445.98,-263.67 1776.97,-608.15 h 26.46 c -283.63,410.45 -940.43,798.49 -1803.43,798.49 h 5.01 c -863.14,0 -1520.48,-399.38 -1813.301,-826.08 z" /></clipPath><linearGradient
       id="linearGradient3804"
       spreadMethod="pad"
       gradientTransform="matrix(3611.72,0,0,-3611.72,938.559,1815.56)"
       gradientUnits="userSpaceOnUse"
       y2="0"
       x2="1"
       y1="0"
       x1="0"><stop
         id="stop3786"
         offset="0"
         style="stop-opacity:1;stop-color:#f03c1f" /><stop
         id="stop3788"
         offset="0.5"
         style="stop-opacity:1;stop-color:#fdd711" /><stop
         id="stop3790"
         offset="0.595238"
         style="stop-opacity:1;stop-color:#feea4d" /><stop
         id="stop3792"
         offset="0.644444"
         style="stop-opacity:1;stop-color:#fffee3" /><stop
         id="stop3794"
         offset="0.712698"
         style="stop-opacity:1;stop-color:#fffee3" /><stop
         id="stop3796"
         offset="0.81746"
         style="stop-opacity:1;stop-color:#fddf4c" /><stop
         id="stop3798"
         offset="0.877778"
         style="stop-opacity:1;stop-color:#f89c12" /><stop
         id="stop3800"
         offset="0.951899"
         style="stop-opacity:1;stop-color:#f03c1f" /><stop
         id="stop3802"
         offset="1"
         style="stop-opacity:1;stop-color:#f03c1f" /></linearGradient></defs><g
     transform="matrix(1.3333333,0,0,-1.3333333,0,298.36)"
     id="g3772"><g
       transform="scale(0.1)"
       id="g3774"><path
         id="path3776"
         style="fill:#fff200;fill-opacity:1;fill-rule:nonzero;stroke:none"
         d="m 2805.21,192.051 c -91.67,-46.153 -232.21,-90.063 -350.48,-90.063 -293.2,0 -381.24,155.532 -362.78,325.313 17.58,160.078 83.14,334.519 83.14,415.668 0,70.66 -38.93,106.25 -92.14,106.25 -82.06,0 -192.54,-63.481 -246.79,-109.649 6.32,33.11 10.28,55.84 10.28,62.192 0,32.668 -21.45,47.629 -61.44,47.629 -36.7,0 -116.63,-21.172 -161.95,-35.11 12.89,-3.812 19.13,-28.871 19.13,-49.051 0,-79.269 -69.34,-412.32 -132.19,-555.82 178.54,-15.058 202.71,15.262 224.24,88.129 19.75,65.289 54.23,215.063 79.95,334.59 27.51,29.742 93.72,76.293 128.41,76.293 18.84,0 26.66,-11.16 26.66,-28.32 0,-60.18 -60.14,-248.211 -68.67,-359.981 C 1878.99,146.43 2091.83,0 2359.66,0 c 155.1,0 319.34,56.4297 456.8,173.141 10.72,8.968 1.58,25.41 -11.25,18.91 z m 676.41,747.711 c -161.64,18.226 -199.34,-57.121 -213.23,-122.223 -24.52,-115.469 -49.74,-228.5 -67.23,-305.391 -28.04,-29.707 -87.28,-75.058 -121.29,-75.058 -19.07,0 -26.9,11.25 -26.9,28.59 0,43.211 91.94,387.89 91.94,436.082 0,32.668 -21.45,47.629 -61.35,47.629 -33.49,0 -108.37,-18.059 -155.39,-31.602 -4.13,-1.23 -4.13,-6.738 -1.32,-9.551 10.11,-9.648 13.8,-27.539 13.8,-43.008 0,-122.808 -89.65,-394.332 -89.65,-462.539 0,-70.781 38.94,-106.5 92.11,-106.5 80.86,0 180.88,61.45 234.76,107.5 -10.46,-78.691 37.79,-108.871 88.41,-108.871 55.46,0 106.62,12.969 159,44.942 3.43,2.058 4.13,8.738 1.49,10.039 -40.69,20.73 -58.36,58.008 -49.48,112.371 6.77,41.617 57.92,269.078 104.33,477.59 z m 1545.46,-71.481 c 20.31,0 34.63,-13.812 34.63,-37.011 0,-92.11 -76.11,-200.239 -206.01,-238.442 17.66,147.422 102.92,275.453 171.38,275.453 z m 113.47,-393.929 c -61.61,-40.543 -127.18,-60.641 -175.43,-60.641 -61.87,0 -109.07,32.398 -112.32,114.488 164.79,17.582 374.41,129.961 374.41,272.352 0,90.699 -63.02,148.84 -175.96,148.84 -226.14,0 -399.28,-207.551 -399.28,-430.313 0,-135.187 78.48,-222.887 215.59,-222.887 137.64,0 241.35,67.848 288.2,167.27 5.8,12.18 0,20.988 -15.21,10.891 z m -1278.1,393.929 c 20.21,0 34.36,-13.812 34.36,-37.011 0,-92.11 -76.02,-200.239 -205.84,-238.442 17.67,147.422 103.01,275.453 171.48,275.453 z m 113.37,-393.929 c -61.69,-40.543 -127.09,-60.641 -175.34,-60.641 -61.7,0 -108.98,32.398 -112.58,114.488 165.05,17.582 374.67,129.961 374.67,272.352 0,90.699 -62.66,148.84 -175.95,148.84 -226.06,0 -399.55,-207.551 -399.55,-430.313 0,-135.187 78.39,-222.887 216.21,-222.887 137.37,0 240.9,67.848 288.45,167.27 5.63,12.18 0,20.988 -15.91,10.891 z M 2647.8,862.73 c -26.9,-124.269 -57.22,-261.91 -75.88,-346.07 -34.04,-37.09 -84.38,-79.98 -125.89,-79.98 -25.22,0 -56.4,12.601 -56.4,71.718 0,196.313 126.8,345.172 258.17,354.332 z M 2333.82,296.191 c 86.22,0 174.99,71.231 216.65,122.911 -0.26,-1.352 -0.61,-2.461 -0.82,-3.571 C 2532.37,327.93 2583.02,296 2636.11,296 c 55.9,0 107.14,12.07 160.49,44.289 2.72,1.941 2.46,8.281 -0.36,9.871 -40.6,20.43 -58.18,57.809 -49.39,112.012 11.16,67.437 138.87,623.628 174.29,794.998 9.84,47.13 -6.51,96.97 -77.87,96.97 -32.96,0 -91.15,-17.68 -139.05,-31.23 -5.09,-1.35 -4.65,-7.09 -0.88,-9.61 13.01,-9.49 22.42,-32.75 22.42,-55.14 0,-20.84 -25.84,-149.86 -59.51,-308.769 -261.97,12.41 -482.57,-184.121 -482.57,-452.95 0,-119.761 60.32,-200.25 150.14,-200.25 z m 2215.32,165.981 c 19.42,117.726 135.43,614.818 172.44,786.438 12.92,61.88 -9.32,105.53 -75.76,105.53 -32.26,0 -87.72,-16.76 -135.8,-30.06 -6.41,-1.81 -5.53,-9.37 -1.31,-12.77 12.04,-10 18.54,-27.4 18.54,-49.75 0,-79.04 -154.51,-695.021 -175.6,-846.029 C 4339.43,327.129 4385.04,296 4437.87,296 c 55.19,0 116.45,11.621 168.48,42.48 3.96,2.399 4.05,10.84 0.35,12.829 -38.4,20.82 -66.09,57.562 -57.56,110.863 z m -306.57,0 c 19.34,117.726 135.53,614.818 171.83,786.438 13.18,61.88 -9.32,105.53 -75.24,105.53 -32.34,0 -87.8,-16.76 -136.31,-30.06 -6.24,-1.81 -5.54,-9.37 -1.41,-12.77 12.04,-10 19.07,-27.4 19.07,-49.75 0,-79.04 -154.6,-695.021 -175.6,-846.029 C 4032.6,327.129 4078.39,296 4131.13,296 c 54.84,0 116.72,11.621 168.31,42.48 4.04,2.399 4.13,10.84 0.7,12.829 -38.76,20.82 -66.44,57.562 -57.57,110.863 z M 1172.26,383.18 c -38.17,0 -66.62,29.422 -62.93,112.351 8.32,183.141 89.91,363.61 176.9,363.61 40.45,0 64.71,-31 63.13,-112.77 -2.67,-171.41 -90.18,-363.191 -177.1,-363.191 z m 178.51,563.5 C 1085.69,970.531 907.008,727.379 907.008,521.988 c 0,-120.859 76.519,-213.566 201.182,-223.937 269.12,-22.27 444.11,219.25 444.11,424.918 0,120.429 -76.55,212.519 -201.53,223.711 z M 311.781,393.57 415.23,826.68 c 149.442,5.859 221.571,-48.149 221.571,-158.442 0,-127.617 -104.942,-290.488 -325.02,-274.668 z m 280.723,495.45 c 212.695,47.171 344.973,168.48 344.973,307.35 0,118.83 -115.903,214.1 -292.063,214.1 -214.863,0 -441.035,-136.19 -553.4179,-293.58 -9.4922,-13.51 -3.6914,-24.23 7.707,-16.05 146.1919,104.71 312.0389,183.34 451.0549,183.34 111.797,0 162.359,-56.02 162.359,-117.7 0,-101.42 -88.972,-205.8 -274.043,-240.781 l 64.043,269.261 C 356.984,1172.81 282.074,1143.61 246.652,1007.73 204.816,848.141 110.426,451.09 97.5039,400.699 85.582,353.648 63.5781,335.43 33.1992,318.031 31,316.68 31.0586,313.871 33.6367,313.629 c 66.5043,-5.309 227.2853,-8.078 288.2543,-8.078 398.086,0 550.718,180.82 550.718,359.82 0,129.859 -115.191,213.981 -280.105,223.649" /><g
         id="g3778"><g
           clip-path="url(#clipPath3784)"
           id="g3780"><path
             id="path3806"
             style="fill:url(#linearGradient3804);fill-opacity:1;fill-rule:nonzero;stroke:none"
             d="m 938.559,1411.62 21.007,-18.2 c 296.254,341.4 979.074,653.94 1792.294,653.94 h -5.01 c 822.3,0 1445.98,-263.67 1776.97,-608.15 h 26.46 c -283.63,410.45 -940.43,798.49 -1803.43,798.49 h 5.01 c -863.14,0 -1520.48,-399.38 -1813.301,-826.08" /></g></g><path
         id="path3808"
         style="fill:#0a391a;fill-opacity:1;fill-rule:nonzero;stroke:none"
         d="m 2773.22,235.02 c -91.23,-46.231 -231.74,-89.731 -349.87,-89.731 -293.29,0 -381.18,155.223 -362.98,324.922 17.57,160.359 82.99,334.668 82.99,416.18 0,70.211 -39.05,105.871 -91.93,105.871 -82.27,0 -192.77,-63.453 -246.88,-109.512 6.38,32.891 10.37,55.57 10.37,61.879 0,32.543 -21.48,47.691 -61.38,47.691 -36.65,0 -116.6,-21.211 -161.81,-35.148 12.42,-3.871 18.58,-28.774 18.58,-48.934 0,-79.429 -68.85,-412.359 -131.78,-555.816 178.36,-15.172 202.53,15.648 224.06,88.066 19.57,65.231 54.32,214.922 79.98,334.633 27.6,29.758 93.84,76.641 128.29,76.641 19.08,0 26.93,-11.532 26.93,-28.832 0,-60.039 -60.21,-247.969 -69.08,-360 -21.27,-273.52 191.66,-420.0394 459.22,-420.0394 155.39,0 319.43,56.5977 457.06,173.2384 10.64,8.91 1.59,25.43 -11.77,18.891 z m 676.76,747.601 c -161.64,18.319 -199.69,-57.09 -213.49,-121.781 -24.08,-115.899 -49.57,-228.461 -66.8,-305.719 -28.21,-29.711 -87.19,-74.961 -121.37,-74.961 -18.99,0 -26.99,11.149 -26.99,28.531 0,43.18 92.11,387.77 92.11,435.938 0,32.75 -21.53,47.691 -61.43,47.691 -33.49,0 -108.37,-17.968 -155.39,-31.5 -4.14,-1.23 -4.14,-6.929 -1.23,-9.75 10.19,-9.371 13.62,-27.34 13.62,-42.832 0,-122.847 -89.47,-394.328 -89.47,-462.539 0,-70.578 38.58,-106.519 91.84,-106.519 80.6,0 181.06,61.82 234.93,107.64 -10.28,-78.582 37.88,-108.992 88.07,-108.992 55.9,0 107.05,12.891 159.52,45.203 3.17,2.09 3.87,8.61 1.06,10.11 -40.61,20.121 -58.1,57.558 -49.22,111.879 6.76,41.66 57.92,269.039 104.24,477.601 z m 1545.55,-71.332 c 20.04,0 34.37,-13.93 34.37,-36.68 0,-92.699 -76.12,-200.629 -205.93,-238.418 17.84,146.95 102.92,275.098 171.56,275.098 z m 113.38,-393.988 c -61.52,-40.43 -127.26,-60.582 -175.87,-60.582 -61.52,0 -108.46,32.402 -112.06,114.429 164.88,17.461 374.41,130.024 374.41,272.403 0,90.769 -62.84,148.711 -175.78,148.711 -226.05,0 -399.37,-207.532 -399.37,-430.371 0,-135.051 78.05,-222.711 215.77,-222.711 137.64,0 241.44,68.199 288.19,167.23 5.89,12.18 0,21.031 -15.29,10.891 z M 3830.89,911.289 c 20.13,0 34.54,-13.93 34.54,-36.68 0,-92.699 -76.2,-200.629 -206.01,-238.418 17.49,146.95 103.09,275.098 171.47,275.098 z m 113.38,-393.988 c -61.52,-40.43 -127.18,-60.582 -175.43,-60.582 -61.78,0 -108.81,32.402 -112.67,114.429 165.14,17.461 374.85,130.024 374.85,272.403 0,90.769 -62.84,148.711 -176.04,148.711 -226.15,0 -399.47,-207.532 -399.47,-430.371 0,-135.051 78.4,-222.711 215.95,-222.711 137.64,0 241.17,68.199 288.11,167.23 5.97,12.18 0,21.031 -15.3,10.891 z M 2616.16,905.84 C 2589.17,781.332 2559,644.16 2540.19,559.512 c -34.19,-37.051 -84.2,-79.801 -125.86,-79.801 -25.14,0 -56.16,12.519 -56.16,71.461 0,196.519 126.74,345.289 257.99,354.668 z M 2302.01,339.18 c 86.39,0 174.99,71.269 216.44,122.808 -0.26,-1.226 -0.44,-2.457 -0.58,-3.34 -17.08,-87.359 33.8,-119.757 86.51,-119.757 55.99,0 107.23,12.07 160.14,44.839 2.9,1.68 2.55,8.122 -0.27,9.649 -40.34,20.211 -57.65,57.5 -48.86,111.641 10.81,67.5 138.86,623.65 174.19,795.27 9.67,47.07 -6.68,96.92 -77.87,96.92 -33.04,0 -91.23,-17.7 -139.04,-31.21 -5.01,-1.43 -4.57,-7.21 -1.05,-9.81 13,-9.53 22.5,-32.75 22.5,-54.96 0,-20.84 -25.67,-149.86 -59.33,-308.968 -261.97,12.548 -482.72,-184.024 -482.72,-452.961 0,-119.551 60.38,-200.121 149.94,-200.121 z m 2215.57,165.84 c 19.51,117.949 135.62,614.92 172,786.72 13.28,61.6 -9.14,105.47 -75.32,105.47 -32.08,0 -87.8,-16.82 -135.96,-30.33 -6.16,-1.72 -5.37,-9.34 -1.5,-12.66 12.22,-10.02 18.99,-27.33 18.99,-49.59 0,-79.16 -154.69,-694.982 -175.7,-845.982 -12.39,-88.117 33.58,-119.757 86.31,-119.757 54.93,0 116.37,11.711 168.22,42.91 4.05,2.379 4.22,10.879 0.62,12.828 -38.41,20.43 -66.36,57.223 -57.66,110.391 z m -306.91,0 c 19.69,117.949 135.88,614.92 172,786.72 13.36,61.6 -9.14,105.47 -75.06,105.47 -32.34,0 -87.98,-16.82 -136.32,-30.33 -6.24,-1.72 -5.45,-9.34 -1.4,-12.66 12.04,-10.02 18.98,-27.33 18.98,-49.59 0,-79.16 -154.33,-694.982 -175.43,-845.982 -12.48,-88.117 33.58,-119.757 86.31,-119.757 54.49,0 116.1,11.711 168.31,42.91 3.87,2.379 4.13,10.879 0.44,12.828 -38.67,20.43 -66.8,57.223 -57.83,110.391 z M 1140.5,426.012 c -37.88,0 -66.35,29.418 -62.66,112.449 8.17,183.117 89.76,363.391 176.48,363.391 40.87,0 64.95,-30.411 63.55,-112.614 -2.88,-171.097 -90.33,-363.226 -177.37,-363.226 z m 178.77,563.636 C 1054.14,1013.38 875.336,770.309 875.336,564.879 c 0,-120.68 76.465,-213.57 201.474,-224 268.95,-22.27 443.85,219.371 443.85,424.82 0,121.039 -76.38,212.621 -201.39,223.949 z M 280.23,436.461 383.703,869.98 c 149.238,6.032 221.543,-48.519 221.543,-158.769 0,-127.699 -105.027,-290.473 -325.016,-274.75 z m 280.575,495.391 c 212.668,47.168 344.883,168.638 344.883,307.508 0,118.77 -115.606,214.09 -291.883,214.09 -215.071,0 -441.067,-136.28 -553.1839,-293.49 -9.8477,-13.69 -4.1328,-24.32 7.5273,-16.15 146.1056,104.57 311.9536,183.32 450.7036,183.32 112.148,0 162.683,-55.9 162.683,-117.66 0,-101.42 -88.941,-206.07 -274.273,-240.74 l 64.246,269.04 C 325.434,1215.7 250.551,1186.68 215.016,1050.82 173.09,891.129 78.7852,494.102 65.7734,443.852 53.6484,396.719 32.0547,378.73 1.52734,361.031 c -2.195309,-1.34 -2.109371,-4.101 0.82032,-4.332 66.32814,-5.39 226.81634,-8.129 287.75434,-8.129 398.234,0 550.871,180.75 550.871,359.871 0,129.68 -115.11,213.879 -280.168,223.411" /></g></g></svg>