<?xml version="1.0" encoding="utf-8"?>
<!-- Generator: Adobe Illustrator 19.2.1, SVG Export Plug-In . SVG Version: 6.00 Build 0)  -->
<svg version="1.1" id="layer" xmlns="http://www.w3.org/2000/svg" xmlns:xlink="http://www.w3.org/1999/xlink" x="0px" y="0px"
	 viewBox="0 0 652 652" style="enable-background:new 0 0 652 652;" xml:space="preserve">
<style type="text/css">

	.st0{fill:#FFFFFF;}
	.st1{fill:none;stroke:#000000;stroke-width:1.5678;}
</style>
<polygon fill="#fff"  points="94,397.8 26.2,363.7 26.2,288.1 94,254.6 161.8,288.1 161.8,363.7 "/>
<polygon fill="#de3e16"  points="47.3,351.2 47.3,302.1 94.1,278.8 140.7,302 140.7,351.2 94.1,373.6 "/>
<polygon  fill="#de3e16" points="54,347.6 54,305.5 94.1,285.5 134.1,305.4 134.1,347.6 94.1,366.9 "/>
<polygon  fill="#de3e16"  points="94.1,285.5 134.1,305.4 134.1,347.6 94.1,366.9 54,347.6 54,305.5 "/>
<rect fill="#fff" x="256.5" y="297.1" width="16.8" height="55.6"/>
<rect fill="#fff" x="256.5" y="297.1" width="16.8" height="55.6"/>
<polygon fill="#fff" points="234.5,352.7 220.6,331.2 215.8,336.7 215.8,352.7 199,352.7 199,297.1 215.8,297.1 215.8,315.8 231.6,297.1 
	252.1,297.1 232.2,318.7 255.3,352.7 "/>
<polygon fill="#fff" points="315.9,352.7 302.1,331.2 297.2,336.7 297.2,352.7 280.5,352.7 280.5,297.1 297.2,297.1 297.2,315.8 313.1,297.1 
	333.5,297.1 313.7,318.7 336.8,352.7 "/>
<polygon fill="#fff" points="373.8,352.7 359.9,331.2 355.1,336.7 355.1,352.7 338.3,352.7 338.3,297.1 355.1,297.1 355.1,315.8 371,297.1 
	391.4,297.1 371.5,318.7 394.6,352.7 "/>
<polygon fill="#fff" points="500.8,352.7 500.8,316.9 490.7,352.7 478,352.7 468,316.9 468,352.7 452.2,352.7 452.2,297.1 476.2,297.1 
	484.4,329.7 492.6,297.1 516.6,297.1 516.6,352.7 "/>
<polygon fill="#fff" points="609.6,352.7 592.6,322.8 592.6,352.7 576.8,352.7 576.8,297.1 593.9,297.1 610.4,327.2 610.4,297.1 626.2,297.1 
	626.2,352.7 "/>
<g>
	<path fill="#fff" d="M408.5,324.9c0,9.7,3.7,15,10.7,15s10.7-5.3,10.7-15c0-9.7-3.7-15-10.7-15S408.5,315.2,408.5,324.9 M419.1,295.9
		c13.2,0,27.8,7.1,27.8,29.2s-14.5,29.2-27.8,29.2c-13.2,0-27.8-7.1-27.8-29.2S405.8,295.9,419.1,295.9"/>
	<path fill="#fff" d="M546.6,316.8l-5,15.5h9.8L546.6,316.8z M554.8,344.8h-17.3l-2.6,8H518l20.3-55.7h16.4l20.3,55.7h-17.1L554.8,344.8z"/>
	<path  fill="#fff" d="M105.9,316.8l0.8,1l-0.8,1h-4.1v2.7h8.7l3.4-7.2h-12.2v2.6H105.9z M86.5,316.8v-2.6H74.4l3.4,7.2h8.7v-2.7h-4.1l-0.8-1
		l0.8-1H86.5z M103.6,303.9h-19v6.1h19V303.9z M103.6,300v-2.4l2.7-1.5l2.7,1.6v2.3h12.6v0.6h-2.1l-1.9,3.4h-8.7v5.9h6.6l2.1,4.3
		l-5.3,11.2H101v5.3h14.5l3.2,3.7c-1.3,1.8-2.8,7.9,0.2,10.4c3,2.6,4.5-0.6,4.7-2c0.4,3.2-0.6,11.4-6,10.3
		c-5.5-1.2-5.7-10.8-4.7-17.5H101v7.9h4.1v-3.7l1.5-1l1.5,1v8.9l-3.2,3.4c-1.7-1.6-5-3.5-10.8-3.5c-5.8,0-9.1,2-10.8,3.5l-3.2-3.4
		v-8.9l1.5-1l1.5,1v3.7h4.1v-7.9H75.3c0.9,6.7,0.8,16.4-4.7,17.5c-5.5,1.2-6.4-7.1-6-10.3c0.2,1.4,1.7,4.5,4.7,2
		c3-2.6,1.5-8.7,0.2-10.4l3.2-3.7h14.5v-5.3H75.7l-5.3-11.2l2.1-4.3h6.6V304h-8.7l-1.9-3.4h-2.1V300h12.6v-2.3l2.7-1.6l2.7,1.5v2.4
		H103.6z"/>
</g>
</svg>
