<?xml version="1.0" encoding="utf-8"?>
<!-- Generator: Adobe Illustrator 18.1.1, SVG Export Plug-In . SVG Version: 6.00 Build 0)  -->
<!DOCTYPE svg PUBLIC "-//W3C//DTD SVG 1.1//EN" "http://www.w3.org/Graphics/SVG/1.1/DTD/svg11.dtd">
<svg version="1.1" id="Calque_1" xmlns="http://www.w3.org/2000/svg" xmlns:xlink="http://www.w3.org/1999/xlink" x="0px" y="0px"
	 viewBox="0 0 210 120" enable-background="new 0 0 210 120" xml:space="preserve">
<g>
	<ellipse cx="103.9" cy="59.8" rx="101" ry="57.6"/>
</g>
<g>
	<path fill="#FFFFFF" d="M71.3,75.2c-4.4,0-7.5-1.6-9.3-2.6l-0.2-7c1.1,3.3,4.4,6,9.1,6c4.5,0,5.9-2.9,5.9-4.6
		c0-3.3-2.8-4.6-7.6-6.8c-4.9-2.3-7.7-5.4-7.7-9.2c0-5.6,6-8.2,10.8-8.2c1.9,0,4.8,0.3,7.2,1.8l0.3,6.7c-0.6-2.2-3.3-4.9-7.4-4.9
		c-4.2,0-5.4,1.9-5.4,3.3c0,2,1.1,3.2,5.9,5.4c4.8,2.2,9.9,4.5,9.9,10.8C82.7,71.5,76.6,75.2,71.3,75.2"/>
	<path fill="#FFFFFF" d="M30.3,75.2c-4.4,0-7.5-1.6-9.3-2.6l-0.2-7c1.1,3.3,4.4,6,9.1,6c4.5,0,5.9-2.9,5.9-4.6
		c0-3.3-2.8-4.6-7.6-6.8c-4.9-2.3-7.7-5.4-7.7-9.2c0-5.6,6-8.2,10.8-8.2c1.9,0,4.8,0.3,7.2,1.8l0.3,6.7c-0.6-2.2-3.3-4.9-7.4-4.9
		c-4.2,0-5.4,1.9-5.4,3.3c0,2,1.1,3.2,5.9,5.4c4.8,2.2,9.9,4.5,9.9,10.8C41.7,71.5,35.6,75.2,30.3,75.2"/>
	<g>
		<path fill="#FFFFFF" d="M51.7,55.1c-0.3,0.7-1,1.2-1.9,1.2c-1.1,0-2.1-0.9-2.1-2.1c0,0,0-5.3,0-5.8c0.5,0,3.5,0,3.5,0v-2.3
			c0,0-3,0-3.5,0c0-0.4,0-3.3,0-3.3l-5.4,5.6c0,0,1.4,0,1.7,0c0,0.5,0,5.8,0,5.8c0,2.8,1.7,4.5,4.4,4.5
			C50.3,58.8,51.8,57.6,51.7,55.1z"/>
	</g>
	<path fill="#FFFFFF" d="M107.2,74.8H87.9c0.8-0.4,1.4-1,1.4-2.1V45.3c0-1.1-0.6-1.7-1.3-2.1h18.5l0.1,5.3c-0.9-1.1-1.9-1.6-3.9-1.6
		c-0.9,0-7.4-0.1-7.4-0.1v9.8h7c0.6,0,1.4-0.7,1.6-1.3v6.2c-0.2-0.6-1-1.3-1.6-1.3h-7v10.7c1,0.1,2.3,0.3,4.5,0.3c5,0,6.8,0,8.5-2.9
		L107.2,74.8z"/>
	<path fill="#FFFFFF" d="M135.2,45.4c-0.8,1.8-11.9,30.5-11.9,30.5s-11.9-28.8-12.7-30.5c-0.5-0.9-0.9-1.7-2.4-2.2h10.1
		c-1.2,0.5-1.2,1.6-0.9,2.7c0.1,0.1,7,17.4,7,17.4s6.9-17.7,6.9-17.9c0.4-1.1,0.3-1.8-0.8-2.2h6.4C135.6,44,135.7,44.2,135.2,45.4"
		/>
	<path fill="#FFFFFF" d="M159,74.8h-19.3c0.8-0.4,1.4-1,1.4-2.1V45.3c0-1.1-0.6-1.7-1.3-2.1h18.5l0.1,5.3c-0.9-1.1-1.9-1.6-3.9-1.6
		c-0.9,0-7.4-0.1-7.4-0.1v9.8h7c0.6,0,1.4-0.7,1.6-1.3v6.2c-0.2-0.6-1-1.3-1.6-1.3h-7v10.7c1,0.1,2.3,0.3,4.5,0.3c5,0,6.8,0,8.5-2.9
		L159,74.8z"/>
	<path fill="#FFFFFF" d="M187.4,74.9c-1.8,0-3.1-1.2-3.8-2.2c-2.4-3.5-4-6.4-5.7-9c-1.2-1.9-2.2-3.6-4.6-3.6h-0.8v12.6
		c0,1,0.6,1.7,1.3,2.1h-8.5c0.7-0.4,1.3-1.1,1.3-2.1V45.3c0-1.1-0.6-1.7-1.3-2.1h10.1c9.3,0,11.3,4.8,11.3,7.8c0,5-4.5,7.6-7.3,7.8
		c2.5,0.5,3.9,2.6,4.5,3.5c0.6,0.9,5.7,9.4,7,10.7c1.3,1.2,3,1.9,3,1.9L187.4,74.9z M174.8,46.7c-1.8,0-2.4,0.1-2.4,0.1v9.7
		c0,0,0.7,0.1,1.7,0.1c3.1,0,6.1-0.9,6.1-5.4C180.2,49.3,179.1,46.7,174.8,46.7"/>
</g>
<path fill="#E2231A" d="M138.2,29.4c0,0-3.9-0.5-15.6-0.8v-3.2h0.2v-1h-0.2v-4.4h0.9v-1.3h-0.9l0,0l-8.6-2.6l0,0v-3l-5-1.9l-5,1.9v3
	l-8.6,2.6l0,0h-0.9v1.3h0.9v4.4h-0.2v1h0.2v3c-2,0-3.9,0-5.7,0.1c0.2-3.1,0.3-6.3,0.4-9.1c0.2-0.1,0.4-0.2,0.4-0.3
	c0-0.1-0.1-0.2-0.4-0.3c0-0.7,0-1.4,0.1-2c0.3,0,0.7,0,1,0c1.7,0,3-0.4,3-0.8c0-0.1,0-0.2-0.1-0.2c0.8,0,1.4-0.2,1.4-0.4
	c0-0.2-0.8-0.4-1.7-0.4c-0.8,0-1.5,0.2-1.7,0.4c-0.3,0-0.6,0-1,0c-0.3,0-0.7,0-1,0c0-0.5,0-1,0-1.4c0.2,0,0.4,0,0.5,0
	c3.9,0,5.4-0.5,5.1-1.7c-0.3-1.3-2.8-2.4-5.1-2.4c-1.4,0-2.9,0.4-3.9,1.1c-1.7,0.3-2.9,0.8-2.9,1.4c0,0.8,2,1.4,4.6,1.6
	c0.4,0,0.8,0.1,1.3,0.1c0,0.4,0,0.9-0.1,1.5c-1,0.1-1.7,0.4-1.7,0.7c0,0.3,0.6,0.6,1.6,0.7c0,0.6-0.1,1.2-0.1,1.8
	c-0.2,0-0.5-0.1-0.8-0.1c-0.6,0-1.1,0.1-1.1,0.3c-0.4,0.1-0.7,0.2-0.7,0.3c0,0.2,0.8,0.4,1.7,0.4c0.3,0,0.6,0,0.8-0.1
	c-0.2,2.8-0.3,6-0.6,9c-1.3,0-2.6,0.1-3.7,0.1c-0.1-2.1-0.3-4.2-0.4-6.1c0.2,0,0.4,0,0.6,0c0.7,0,1.3-0.2,1.3-0.3
	c0-0.1-0.2-0.2-0.5-0.3c0-0.1-0.4-0.2-0.8-0.2c-0.2,0-0.4,0-0.6,0.1c0-0.5-0.1-0.9-0.1-1.3c0.7-0.1,1.2-0.3,1.2-0.5
	c0-0.2-0.5-0.4-1.2-0.5c0-0.4,0-0.8-0.1-1.1c0.3,0,0.6,0,0.9,0c2-0.1,3.5-0.6,3.5-1.2c0-0.5-0.9-0.9-2.2-1.1
	c-0.8-0.5-1.9-0.8-2.9-0.8c-1.7,0-3.6,0.9-3.8,1.8c-0.2,0.9,0.9,1.3,3.8,1.3c0.1,0,0.3,0,0.4,0c0,0.3,0,0.7,0,1.1
	c-0.2,0-0.5,0-0.7,0c-0.3,0-0.5,0-0.7,0c-0.1-0.2-0.6-0.3-1.2-0.3c-0.7,0-1.3,0.2-1.3,0.3c0,0.2,0.5,0.3,1.1,0.3
	c-0.1,0.1-0.1,0.1-0.1,0.2c0,0.3,1,0.6,2.3,0.6c0.3,0,0.5,0,0.8,0c0,0.5,0,1,0,1.5c-0.2,0.1-0.3,0.1-0.3,0.2c0,0.1,0.1,0.2,0.3,0.2
	c0.1,1.9,0.2,4,0.3,6.2c-11.5,0.3-15.4,0.8-15.4,0.8H138.2z M114.2,25.5h0.2v-1.1h-0.2c0.3-1.5,1.6-2.6,3.2-2.6
	c1.6,0,2.9,1.1,3.2,2.6h-0.2v1.1h0.2v3.1c-2,0-4.2-0.1-6.6-0.1L114.2,25.5z M108.4,28.4C108.4,28.4,108.4,28.4,108.4,28.4
	c0-0.2,0.1-0.5,0.1-0.5s0.1,0,0.2,0c0.1,0,0.2-0.1,0.2-0.1s0,0.2,0.2,0.2c0,0.1,0,0.1,0.1,0.2c0,0.1,0.1,0.1,0.1,0.2
	C109,28.4,108.7,28.4,108.4,28.4z M108.2,15.1c0-0.5,0.4-0.9,0.9-0.9c0.5,0,0.9,0.4,0.9,0.9v1.7h-1.9V15.1z M105.8,25.5h0.2v-1.1
	h-0.2c0.3-1.5,1.6-2.6,3.2-2.6c1.6,0,2.9,1.1,3.2,2.6h-0.2v1.1h0.2v3c-1,0-2,0-3,0c0-0.1-0.1-0.3-0.1-0.4c0.1-0.1,0.1-0.3,0.2-0.3
	c0-0.1,0.2-0.2,0.3-0.3c0.1-0.1,0.3-0.2,0.4-0.5c0.1-0.2,0.1-0.6,0.2-0.9c0.1-0.1,0.1-0.3,0.1-0.5c0,0,0.1,0.1,0.2,0.1
	c0.1,0,0.2-0.1,0.2-0.1c0-0.1-0.1-0.2-0.1-0.2s0,0,0.1,0c0,0,0.1,0,0.1,0c0,0,0-0.1,0-0.1c0,0-0.1,0-0.1,0s0,0,0.1-0.1
	c0,0,0-0.1,0-0.1c0,0,0-0.1,0,0c0,0,0,0,0,0c0,0,0,0,0-0.1c0,0,0,0,0,0c0,0,0,0,0,0c0,0,0,0,0,0c0,0,0-0.1,0-0.1c0,0,0,0,0,0
	c0,0,0,0-0.1,0.1c0,0,0,0,0,0c0,0,0-0.1,0-0.1c0,0,0,0,0,0c0,0,0,0.1-0.1,0.1c0,0,0,0,0,0c0,0,0-0.1,0-0.1c0,0,0,0,0,0
	c0,0,0,0.1,0,0.1c0-0.1-0.2-0.1-0.2,0c-0.1,0.1,0,0.2,0,0.2c0.1,0,0.1,0,0.1,0s-0.3,0.1-0.5,0.3c-0.1,0.1-0.4,0.6-0.7,0.8
	c0,0-0.1,0-0.1,0c-0.1,0-0.7,0.1-0.8,0.2c-0.1,0-0.3,0-0.4-0.2c-0.1-0.2-0.5-0.5-0.7-0.5c0,0-0.1,0.2-0.2,0.3
	c-0.1,0.1-0.1,0.4,0,0.6c0.1,0.1,0.3,0.2,0.4,0.2c0.1,0.1,0.1,0.2,0.2,0.4c0.1,0.2,0.3,0.4,0.5,0.5c0.2,0.1,0.2,0.1,0.2,0.1
	s0,0.1,0,0.1c0,0,0,0.1,0,0.1s0,0,0,0.1c0,0.1,0,0.3,0,0.5c-0.8,0-1.6,0-2.5,0V25.5z M97.3,25.5h0.2v-1.1h-0.2
	c0.3-1.5,1.6-2.6,3.2-2.6c1.6,0,2.9,1.1,3.2,2.6h-0.2v1.1h0.2v2.9c0,0-0.1,0-0.1,0c-2.3,0-4.5,0-6.5,0V25.5z"/>
<g>
	<path fill="#FFFFFF" d="M186.4,41.8c0-0.7,0.2-1.3,0.7-1.8c0.5-0.5,1.1-0.7,1.8-0.7c0.7,0,1.3,0.2,1.8,0.7c0.5,0.5,0.7,1.1,0.7,1.8
		c0,0.7-0.2,1.3-0.7,1.8c-0.5,0.5-1.1,0.7-1.8,0.7c-0.7,0-1.3-0.2-1.8-0.7C186.7,43.1,186.4,42.5,186.4,41.8z M191,41.8
		c0-0.6-0.2-1.1-0.6-1.5c-0.4-0.4-0.9-0.6-1.5-0.6c-0.6,0-1.1,0.2-1.5,0.6c-0.4,0.4-0.6,0.9-0.6,1.5c0,0.6,0.2,1.1,0.6,1.5
		c0.4,0.4,0.9,0.6,1.5,0.6c0.6,0,1.1-0.2,1.5-0.6C190.8,42.9,191,42.4,191,41.8z M188.7,43.1h-0.7v-2.7h0.9c0.8,0,1.2,0.3,1.2,0.9
		c0,0.5-0.2,0.7-0.6,0.8l0.7,0.9h-0.9l-0.6-0.8V43.1z M188.7,41.1v0.7h0.2c0.3,0,0.4-0.1,0.4-0.3c0-0.2-0.1-0.3-0.4-0.3H188.7z"/>
</g>
<g>
	<path fill="#FFFFFF" d="M44,85.2h4.5v1.2h-3.2v1.3h2.8v1.2h-2.8v2.3H44V85.2z"/>
	<path fill="#FFFFFF" d="M50.4,85.2h1.3v5.9h-1.3V85.2z"/>
	<path fill="#FFFFFF" d="M53.9,85.2h4.5v1.2h-3.2v1.2H58v1.2h-2.8v1.2h3.2v1.2h-4.5V85.2z"/>
	<path fill="#FFFFFF" d="M60.4,85.2h2.7c0.8,0,1.3,0.2,1.7,0.6c0.3,0.3,0.5,0.8,0.5,1.4v0c0,1-0.5,1.6-1.3,1.8l1.4,2.1H64l-1.3-1.9
		h-1v1.9h-1.3V85.2z M63,88.1c0.6,0,1-0.3,1-0.8v0c0-0.6-0.4-0.8-1-0.8h-1.3v1.7H63z"/>
	<path fill="#FFFFFF" d="M66.9,90.2l0.8-0.9c0.5,0.4,1.1,0.7,1.8,0.7c0.5,0,0.9-0.2,0.9-0.6v0c0-0.3-0.2-0.5-1.2-0.8
		c-1.2-0.3-2-0.6-2-1.8v0c0-1.1,0.9-1.8,2.1-1.8c0.9,0,1.6,0.3,2.2,0.8l-0.7,1c-0.5-0.4-1-0.6-1.5-0.6c-0.5,0-0.8,0.2-0.8,0.5v0
		c0,0.4,0.3,0.5,1.3,0.8c1.2,0.3,1.9,0.7,1.9,1.8v0c0,1.2-0.9,1.8-2.2,1.8C68.5,91.2,67.6,90.9,66.9,90.2z"/>
	<path fill="#FFFFFF" d="M76.8,85.2h2.3c1.9,0,3.1,1.3,3.1,2.9v0c0,1.7-1.3,3-3.1,3h-2.3V85.2z M78.1,86.4v3.6h1
		c1.1,0,1.8-0.7,1.8-1.8v0c0-1-0.7-1.8-1.8-1.8H78.1z"/>
	<path fill="#FFFFFF" d="M84.1,85.2h4.5v1.2h-3.2v1.2h2.8v1.2h-2.8v1.2h3.2v1.2h-4.5V85.2z"/>
	<path fill="#FFFFFF" d="M93.9,85.2h1.2l2.8,3.6v-3.6h1.3v5.9H98l-2.9-3.8v3.8h-1.3V85.2z"/>
	<path fill="#FFFFFF" d="M101.1,88.2L101.1,88.2c0-1.7,1.3-3.1,3.2-3.1c1.8,0,3.1,1.4,3.1,3v0c0,1.7-1.3,3.1-3.2,3.1
		C102.4,91.2,101.1,89.8,101.1,88.2z M106,88.2L106,88.2c0-1-0.7-1.9-1.8-1.9c-1,0-1.8,0.8-1.8,1.8v0c0,1,0.7,1.9,1.8,1.9
		C105.3,90,106,89.2,106,88.2z"/>
	<path fill="#FFFFFF" d="M108.9,90.2l0.8-0.9c0.5,0.4,1.1,0.7,1.8,0.7c0.5,0,0.9-0.2,0.9-0.6v0c0-0.3-0.2-0.5-1.2-0.8
		c-1.2-0.3-2-0.6-2-1.8v0c0-1.1,0.9-1.8,2.1-1.8c0.9,0,1.6,0.3,2.2,0.8l-0.7,1c-0.5-0.4-1-0.6-1.5-0.6c-0.5,0-0.8,0.2-0.8,0.5v0
		c0,0.4,0.3,0.5,1.3,0.8c1.2,0.3,1.9,0.7,1.9,1.8v0c0,1.2-0.9,1.8-2.2,1.8C110.5,91.2,109.6,90.9,108.9,90.2z"/>
	<path fill="#FFFFFF" d="M118.5,88.2L118.5,88.2c0-1.7,1.3-3.1,3.2-3.1s3.1,1.4,3.1,3v0c0,1.7-1.3,3.1-3.2,3.1
		C119.8,91.2,118.5,89.8,118.5,88.2z M123.4,88.2L123.4,88.2c0-1-0.7-1.9-1.8-1.9c-1,0-1.8,0.8-1.8,1.8v0c0,1,0.7,1.9,1.8,1.9
		C122.7,90,123.4,89.2,123.4,88.2z"/>
	<path fill="#FFFFFF" d="M126.7,85.2h2.7c0.8,0,1.3,0.2,1.7,0.6c0.3,0.3,0.5,0.8,0.5,1.4v0c0,1-0.5,1.6-1.3,1.8l1.4,2.1h-1.5
		l-1.3-1.9h-1v1.9h-1.3V85.2z M129.3,88.1c0.6,0,1-0.3,1-0.8v0c0-0.6-0.4-0.8-1-0.8H128v1.7H129.3z"/>
	<path fill="#FFFFFF" d="M133.7,85.2h1.3v5.9h-1.3V85.2z"/>
	<path fill="#FFFFFF" d="M137,88.2L137,88.2c0-1.7,1.3-3.1,3.1-3.1c1.1,0,1.7,0.3,2.3,0.8l-0.8,1c-0.5-0.4-0.9-0.6-1.5-0.6
		c-0.9,0-1.7,0.8-1.7,1.8v0c0,1.1,0.7,1.9,1.8,1.9c0.5,0,0.9-0.1,1.2-0.4v-0.8H140v-1.1h2.6v2.6c-0.6,0.5-1.4,0.9-2.5,0.9
		C138.2,91.2,137,89.9,137,88.2z"/>
	<path fill="#FFFFFF" d="M144.7,85.2h1.3v5.9h-1.3V85.2z"/>
	<path fill="#FFFFFF" d="M148.2,85.2h1.2l2.8,3.6v-3.6h1.3v5.9h-1.1l-2.9-3.8v3.8h-1.3V85.2z"/>
	<path fill="#FFFFFF" d="M155.7,85.2h4.5v1.2H157v1.2h2.8v1.2H157v1.2h3.2v1.2h-4.5V85.2z"/>
	<path fill="#FFFFFF" d="M161.7,90.2l0.8-0.9c0.5,0.4,1.1,0.7,1.8,0.7c0.5,0,0.9-0.2,0.9-0.6v0c0-0.3-0.2-0.5-1.2-0.8
		c-1.2-0.3-2-0.6-2-1.8v0c0-1.1,0.9-1.8,2.1-1.8c0.9,0,1.6,0.3,2.2,0.8l-0.7,1c-0.5-0.4-1-0.6-1.5-0.6c-0.5,0-0.8,0.2-0.8,0.5v0
		c0,0.4,0.3,0.5,1.3,0.8c1.2,0.3,1.9,0.7,1.9,1.8v0c0,1.2-0.9,1.8-2.2,1.8C163.3,91.2,162.4,90.9,161.7,90.2z"/>
</g>
<g>
</g>
<g>
</g>
<g>
</g>
<g>
</g>
<g>
</g>
<g>
</g>
</svg>
